<svg xmlns="http://www.w3.org/2000/svg" xmlns:xlink="http://www.w3.org/1999/xlink" fill="none" viewBox="0 0 32 32">
  <g clip-path="url(#a)">
    <path fill="#f0f0f0" d="M16 32a16 16 0 1 0 0-32 16 16 0 0 0 0 32"/>
    <path fill="#0052b4" d="M3.3 6.26a16 16 0 0 0-2.75 5.57h8.32zm28.15 5.57a16 16 0 0 0-2.76-5.57l-5.57 5.57zM.55 20.17c.55 2.05 1.5 3.94 2.76 5.57l5.56-5.57zM25.74 3.3A16 16 0 0 0 20.17.56v8.32zM6.26 28.7a16 16 0 0 0 5.57 2.75v-8.32zM11.83.55c-2.05.55-3.94 1.5-5.57 2.76l5.57 5.56zm8.34 30.9c2.05-.55 3.94-1.5 5.57-2.76l-5.57-5.56zm2.96-11.28 5.56 5.57a16 16 0 0 0 2.76-5.57z"/>
    <path fill="#d80027" d="M31.86 13.91H18.1V.14a16 16 0 0 0-4.18 0V13.9H.14a16 16 0 0 0 0 4.18H13.9v13.77a16 16 0 0 0 4.18 0V18.1h13.77a16 16 0 0 0 0-4.18"/>
    <path fill="#d80027" d="m20.17 20.17 7.14 7.14q.5-.49.94-1.02l-6.1-6.12zm-8.34 0-7.14 7.14q.49.5 1.02.94l6.12-6.1zm0-8.34L4.69 4.69q-.5.49-.94 1.02l6.1 6.12zm8.34 0 7.14-7.14q-.49-.5-1.02-.94l-6.12 6.1z"/>
  </g>
  <defs>
    <clipPath id="a">
      <path fill="#fff" d="M0 0h32v32H0z"/>
    </clipPath>
  </defs>
</svg>
