<svg xmlns="http://www.w3.org/2000/svg" fill="none" viewBox="0 0 32 32">
  <circle cx="16" cy="16" r="16" fill="red"/>
  <path fill="#ff0" fill-rule="evenodd" d="m17.68 8.41.22-4.23-.03-.03-.04.02-1.08 4.08-.01.04a.48.48 0 1 0 .94.12m1.17.36.88-4.14q0-.03-.02-.04t-.05.02l-1.71 3.85-.01.04a.48.48 0 1 0 .91.27m1.1.53 1.52-3.94a.04.04 0 0 0-.07-.04l-2.3 3.54-.01.03a.48.48 0 1 0 .86.41m1 .7 2.12-3.66A.04.04 0 0 0 23 6.3l-2.83 3.13-.02.03a.48.48 0 1 0 .79.55m.87.85 2.67-3.28a.04.04 0 0 0 0-.06.04.04 0 0 0-.06 0l-3.27 2.66-.03.03a.48.48 0 1 0 .7.65m.74.98L25.7 9v-.05h-.04L22 11.03a.48.48 0 1 0 .55.79m.57 1.07 3.55-2.3a.04.04 0 0 0-.04-.07l-3.93 1.52-.04.01a.48.48 0 0 0 .44.85zm.4 1.16 3.86-1.72q.03-.01.02-.05l-.04-.02-4.12.88h-.04a.48.48 0 1 0 .32.9m.2 1.2 4.1-1.09q.03 0 .02-.04l-.04-.03-4.2.21h-.05a.48.48 0 1 0 .18.95m.03 1.22 4.2-.44a.04.04 0 0 0 0-.08l-4.19-.44h-.04a.48.48 0 1 0 .03.96m-.17 1.2 4.23.22a.04.04 0 0 0 0-.07l-4.07-1.08-.04-.01a.48.48 0 1 0-.12.94m-.36 1.17 4.14.88q.03 0 .04-.02t-.02-.05l-3.85-1.71-.04-.01a.48.48 0 1 0-.27.91m-.53 1.1 3.94 1.52q.03 0 .05-.02.01-.03-.01-.05l-3.54-2.3-.03-.01a.48.48 0 1 0-.41.86m-.7 1 3.66 2.12a.04.04 0 0 0 .04-.06l-3.13-2.83-.03-.02a.48.48 0 1 0-.55.79m-.85.87 3.28 2.67h.06a.04.04 0 0 0 0-.06l-2.66-3.27-.03-.03a.48.48 0 1 0-.65.7m-.98.74L23 25.69q.01.03.05 0v-.04L20.97 22l-.03-.04a.48.48 0 1 0-.76.59m-1.07.57 2.3 3.55q.02.02.05.01t.02-.05l-1.52-3.93-.01-.04a.48.48 0 1 0-.84.46m-1.16.4 1.72 3.86q.01.03.05.02.03 0 .02-.04l-.88-4.12v-.04a.48.48 0 1 0-.9.32m-1.2.2 1.09 4.1q0 .03.04.02t.03-.04l-.21-4.2v-.05a.48.48 0 1 0-.95.18m-1.22.03.44 4.2a.04.04 0 0 0 .08 0l.44-4.19v-.04a.48.48 0 1 0-.96.03m-1.2-.17-.22 4.23a.04.04 0 0 0 .07 0l1.08-4.07.01-.04a.48.48 0 1 0-.94-.12m-1.17-.36-.88 4.14q0 .03.02.04t.05-.02l1.71-3.85.01-.04a.48.48 0 1 0-.91-.27m-1.1-.53-1.52 3.94q0 .03.02.05.03.01.05-.01l2.3-3.54.01-.03a.48.48 0 1 0-.86-.41m-1-.7-2.12 3.66a.04.04 0 0 0 .06.04l2.83-3.13.02-.03a.48.48 0 1 0-.79-.55m-.87-.85-2.7 3.3v.05h.06l3.27-2.66.03-.03a.48.48 0 1 0-.7-.65m-.74-.98L6.3 23.01v.05q.01.02.04 0l3.65-2.1.04-.03a.48.48 0 1 0-.59-.76m-.57-1.07-3.55 2.3a.04.04 0 0 0 .04.07l3.93-1.52.04-.01a.48.48 0 1 0-.46-.84m-.4-1.16-3.86 1.72a.04.04 0 0 0 .02.07l4.12-.88h.04a.48.48 0 1 0-.32-.9m-.2-1.2-4.1 1.09a.04.04 0 0 0 .02.07l4.2-.21h.05a.48.48 0 1 0-.18-.95m-.03-1.22-4.2.44a.04.04 0 0 0 0 .08l4.19.44h.04a.48.48 0 1 0-.03-.96m.17-1.2-4.2-.23a.04.04 0 0 0-.02.07l4.08 1.08.04.01a.48.48 0 1 0 .12-.94m.36-1.17-4.14-.88q-.04 0-.04.02-.01.03.02.05l3.85 1.71.04.01a.48.48 0 1 0 .27-.91m.53-1.1-3.94-1.52a.04.04 0 0 0-.04.07l3.54 2.3.03.01a.48.48 0 1 0 .41-.86m.7-1L6.35 8.93l-.05.01.01.05 3.13 2.83.03.02a.48.48 0 1 0 .55-.79m.85-.87L7.57 7.5a.04.04 0 0 0-.05.05l2.65 3.28.03.03a.48.48 0 1 0 .65-.7m.98-.74L8.99 6.3h-.05v.04l2.1 3.65.03.04a.48.48 0 1 0 .76-.59m1.07-.57-2.3-3.55a.04.04 0 0 0-.07.04l1.52 3.93.01.04a.48.48 0 1 0 .84-.46m1.16-.4-1.72-3.86a.04.04 0 0 0-.07.02l.88 4.12v.04a.48.48 0 1 0 .9-.32m1.2-.2-1.09-4.1-.04-.02-.03.04.21 4.2v.05a.48.48 0 1 0 .95-.18m1.22-.03-.44-4.2L16 4a.04.04 0 0 0-.04.04l-.44 4.19v.04a.48.48 0 1 0 .96-.03m-.48.51a7.25 7.25 0 1 1 0 14.5 7.25 7.25 0 0 1 0-14.5m0 .87a6.38 6.38 0 1 1 0 12.76 6.38 6.38 0 0 1 0-12.76m-5.33 8.3a13 13 0 0 1 2.6-3.59l.48.33a13 13 0 0 0-2.77 3.93 6 6 0 0 1-.3-.67m5.78-3.3q.23.19.44.39l.46-.37-.43-.38zm-.93-.7.48.34.48-.35-.48-.34zm.05 1.48.43.4.43-.4L16 15q-.23.2-.43.4m-.92-.76.46.37.44-.39-.47-.36zm2.85-1.37-.48-.35-.55.33.5.34zm.85.7-.44-.37-.5.32.43.37zm-2.92-1.35.57-.35q.3.17.57.35l-.57.33zm-.93.65.48-.35.55.33-.5.34zm-.85.7.44-.37.5.32-.43.37zM11 13.14q.9.35 1.76.86-1.34 1.26-2.34 3.04a5.7 5.7 0 0 1 .58-3.9m.49-.75q1.05.34 2.08.9l-.44.37q-.94-.52-1.92-.88zm.6-.67q1.2.31 2.37.92l-.49.34q-1.09-.55-2.21-.91.16-.18.34-.35m.9-.69.05.02.06.02q1.2.3 2.41.93l-.6.35a15 15 0 0 0-2.45-.94q.25-.2.52-.38m5.56-.27-.06.02q-1.25.36-2.48.96-1.2-.59-2.43-.94l-.05-.02-.06-.02a5.7 5.7 0 0 1 5.08 0m1.02.65-.06.02q-1.2.35-2.4.92l-.6-.35a12 12 0 0 1 2.54-.96q.27.17.52.37m.7.66q-1.13.36-2.22.91l-.5-.34q1.19-.6 2.38-.92zm.54.7q-.98.37-1.92.89l-.44-.37q1.04-.55 2.08-.9zm.79 4.27A12 12 0 0 0 19.25 14q.87-.51 1.76-.86a5.7 5.7 0 0 1 .58 3.9m-.57 1.55a13 13 0 0 0-2.77-3.93l.48-.33a13 13 0 0 1 2.6 3.59zm-.9 1.22a13 13 0 0 0-2.82-4.4l.46-.38a12 12 0 0 1 2.84 4.21q-.21.3-.47.57m-1.07.88-.08-.2q-.96-2.54-2.55-4.25l.43-.43a12 12 0 0 1 2.77 4.47q-.27.23-.57.41m-5.52.33.07-.23a12 12 0 0 1 2.4-4.1 12 12 0 0 1 2.4 4.1l.07.23a5.7 5.7 0 0 1-4.94 0m-1.15-.74a12 12 0 0 1 2.77-4.47l.43.43a13 13 0 0 0-2.55 4.25l-.08.2q-.3-.19-.57-.4m-.99-1.04a12 12 0 0 1 2.85-4.21l.46.38a13 13 0 0 0-2.83 4.4 6 6 0 0 1-.47-.57" clip-rule="evenodd"/>
</svg>
