<svg xmlns="http://www.w3.org/2000/svg" fill="none" viewBox="0 0 123 32">
  <path fill="#fff" d="M16.01 0c.03.02.24.19.49.48l.06.06.1.15q.07.07.12.15l.12.2.09.14.16.33.08.22.07.23.03.12.05.26a4 4 0 0 1-.03 1.15q0 .08-.03.16l.15-.1.05-.03.1-.05.1-.05a3 3 0 0 1 .62-.16l.12-.01h.34l.1.01.11.02.12.02a2 2 0 0 1 .69.29l.14.08.13.1.03.01.14.11.18.15.24.24v.02q-1.16.4-2.08 1.3a5.52 5.52 0 1 0 7.81 7.82q.91-.93 1.3-2.09h.02l.1.1.15.15.08.1.1.1.17.25.1.17.1.18.07.16a3 3 0 0 1 .17.74v.26l-.08.48-.1.26-.03.07-.03.07-.03.06-.06.1-.03.04-.04.06.15-.02.31-.05a3 3 0 0 1 .57 0q.2 0 .4.04l.25.06q.24.06.46.15l.4.2.14.08.04.03.16.11.15.11c.37.3.59.58.61.61-.02.04-.19.25-.48.5l-.07.05q-.09.1-.21.17l-.08.05-.01.02-.16.1a3 3 0 0 1-.5.25 3 3 0 0 1-.7.21l-.13.03-.27.03h-.28l-.3-.01-.15-.02-.15-.03-.16-.03.03.03.04.07.08.13.04.1.1.23.03.1a2 2 0 0 1 .09.8l-.04.27-.08.28q-.05.15-.13.3l-.05.1-.05.08-.08.14-.1.14-.01.02-.11.14-.15.18-.24.25-.02-.01a5.52 5.52 0 1 0-7.04 7.03l.01.02a4 4 0 0 1-1.34.92l-.29.08-.14.02-.13.02a2 2 0 0 1-.68-.05l-.11-.04q-.05 0-.11-.03l-.22-.1q-.04 0-.07-.03l-.2-.12-.06-.03.08.6v.43q0 .15-.03.27l-.05.26-.04.18-.14.4-.1.2-.06.12-.1.16-.02.04-.1.14-.1.15-.12.15-.13.15-.08.08-.1.1-.23.21H16l-.32-.3q-.16-.16-.35-.4l-.03-.04-.15-.22-.08-.14a3 3 0 0 1-.29-.62l-.06-.2a3 3 0 0 1-.12-.69v-.31l.06-.56q0-.08.03-.16l-.02.01-.02.02-.03.02q-.05.05-.2.11l-.06.03-.16.07-.37.11-.23.04h-.24l-.26-.02-.14-.02-.28-.08h-.02l-.29-.13-.34-.2-.15-.1a4 4 0 0 1-.46-.4l-.1-.1.02-.01a5.52 5.52 0 1 0-7.04-7.04l-.02.01-.09-.09a4 4 0 0 1-.83-1.25v-.01l-.1-.42-.02-.26v-.24a2 2 0 0 1 .15-.6l.06-.16.04-.08.16-.25-.47.07-.26.02h-.31a4 4 0 0 1-.67-.12l-.21-.06-.22-.1a5 5 0 0 1-.9-.52c-.37-.3-.59-.58-.61-.6V16l.01-.01q.01-.03.07-.08l.03-.04.16-.17.04-.04.04-.04.02-.01.11-.11.1-.08.1-.08.06-.05.36-.23.4-.2a3 3 0 0 1 1.1-.26l.15-.01h.17a6 6 0 0 1 .72.1l-.03-.07-.03-.05-.06-.09-.07-.13a2.2 2.2 0 0 1-.03-1.83 3 3 0 0 1 .3-.54q.21-.32.56-.66l.02.01q.4 1.15 1.3 2.08a5.53 5.53 0 0 0 8.8-1.32 5.52 5.52 0 0 0-3.06-7.8l-.01-.01.09-.1a4 4 0 0 1 .6-.5l.18-.1.18-.1a3 3 0 0 1 .58-.2l.27-.04a2 2 0 0 1 .8.08 2 2 0 0 1 .66.32l-.08-.46-.02-.3v-.27l.01-.04.02-.17.01-.08.02-.11.16-.57q.02-.08.06-.14.08-.22.2-.4l.07-.14.03-.04.12-.16.1-.15c.3-.37.58-.59.61-.61zm4.68 19.43c1.37-1.44 3.27-1.11 4.4-.26.17.14.54.49.65.62q.32.38.32.89 0 .46-.25.79c-.23.31-.6.53-1.02.55-.02 0-.46-.03-.64.03-.66.2-.75 1.12.01 1.24.85.12.93.55.86 1.1-.03.24.03.48.1.65v.06l-.02.01h-.06a1.4 1.4 0 0 0-.66-.1c-.54.08-.97 0-1.1-.85-.1-.76-1.03-.67-1.24-.01-.05.17-.02.61-.02.64a1.34 1.34 0 0 1-1.35 1.27 1.4 1.4 0 0 1-.88-.33 6 6 0 0 1-.62-.65c-.85-1.13-1.18-3.03.26-4.4l.25 1.18c.14.46.34.94.63 1.21q.2.26.56.27c.4 0 .71-.32.72-.72 0-.41-.33-.8-.48-1a7 7 0 0 0-.96-1.05q-.3-.27-.63-.42a2 2 0 0 0-.75-.1v-.25h1.03v-1.04h.25q-.02.4.1.75.15.35.42.64.55.6 1.05.96c.2.14.59.48 1 .48a.73.73 0 0 0 .46-1.29 3 3 0 0 0-1.23-.62zm-13.75-.26c1.12-.86 3.02-1.19 4.39.25l-1.17.26c-.46.14-.95.34-1.22.62a.73.73 0 0 0 .46 1.28c.4 0 .8-.33 1-.47q.5-.35 1.05-.97.27-.29.42-.63.12-.36.1-.75h.25v1.04h1.03v.24q-.39-.01-.75.1-.34.17-.63.42-.62.56-.96 1.05c-.15.2-.48.6-.48 1a.73.73 0 0 0 1.28.46c.29-.27.49-.76.63-1.23l.25-1.15c1.44 1.36 1.1 3.26.25 4.39a6 6 0 0 1-.62.65q-.37.32-.88.33-.46-.01-.79-.26c-.32-.23-.53-.6-.55-1.01 0-.03.03-.47-.03-.65-.2-.66-1.13-.75-1.24.01-.13.85-.55.93-1.1.86-.24-.03-.48.03-.65.1h-.06l-.01-.01v-.07q.11-.27.1-.66c-.08-.54 0-.97.85-1.1.76-.1.67-1.03 0-1.23-.17-.06-.6-.03-.63-.03a1.34 1.34 0 0 1-1.28-1.34c0-.34.14-.64.33-.88.11-.14.48-.49.66-.62m43.54.22L55.9 6.85H60c-1.16 1.03-1.16 1.99-1.16 2.97v12.15c0 .98 0 1.91 1.16 2.94h-5.1c1.13-1 1.13-1.98 1.13-2.94v-9.93L50.2 25.17l-.41-.26L44.1 12.4v9.57c0 .96 0 1.94 1.13 2.94H40.5c1.16-1.03 1.16-1.96 1.16-2.94V9.82c0-.98 0-1.94-1.16-2.97h4.2zM80.63 6.85c-1 1-1 1.96-1 2.97v4.52c1.62-.29 2.91-1.27 4.17-3l.7-.95a9 9 0 0 0 1.34-2.3c.13-.41.18-.8.06-1.24h4.51c-1.73 1.03-2.66 2.79-3.77 4.31l-.87 1.16a8.5 8.5 0 0 1-3.56 2.9c2.27.69 3.92 2.44 6.19 5.54 1.88 2.5 3.02 3.4 4.7 3.4q-1.53 1.03-3.05 1.01c-1.73 0-3.15-.95-5.55-4.6l-.95-1.36c-.96-1.47-2.04-2.6-3.92-2.79v5.53c0 1 0 1.96 1 2.96h-5c.95-1 .98-1.96.98-2.96V9.82c0-.96-.03-1.96-.98-2.97zm38.13 11V9.81c0-1 0-1.91-1.1-2.97h4.48c-1.1 1.03-1.08 1.99-1.08 2.97v15.12l-.28.23-10.43-13.75v10.53c0 .98-.02 1.93 1.09 2.96h-4.47c1.11-1.03 1.09-1.98 1.09-2.96V9.82c0-.98.02-1.94-1.09-2.97h3.64zm-46.9-7.77c-.77-1.06-2.14-1.19-3.35-1.19H66.5q-.04.24-.03.46v5.14h2.3c1.47 0 2.5-.36 3.1-.75v3.64a5.7 5.7 0 0 0-3.1-.75h-2.3v6.04h1.09c4.02 0 5.6-.34 6.34-1.09l-1.62 3.33h-9.8c.95-1 .97-1.96.97-2.96V9.82c0-.96-.02-1.96-.98-2.97h9.4zm31.43 0c-.78-1.06-2.15-1.19-3.36-1.19h-2.01q-.04.24-.03.46v5.14h2.3c1.47 0 2.5-.36 3.1-.75v3.64a5.7 5.7 0 0 0-3.1-.75h-2.3v6.04h1.09c4.02 0 5.6-.34 6.34-1.09l-1.62 3.33h-9.8c.95-1 .97-1.96.97-2.96V9.82c0-.96-.02-1.96-.98-2.97h9.4zM20.67 5.96q.45.01.8.25c.31.23.53.6.55 1.02 0 .02-.03.46.02.64.21.66 1.13.75 1.25-.01.12-.85.55-.93 1.1-.86.24.03.47-.03.65-.1h.06v.02h.01v.06c-.06.18-.13.42-.1.66.08.55 0 .97-.85 1.1-.76.1-.67 1.03-.01 1.24.17.05.61.02.64.02a1.34 1.34 0 0 1 1.27 1.35q-.01.52-.33.88a6 6 0 0 1-.65.62c-1.13.86-3.03 1.18-4.4-.26l1.18-.25a3 3 0 0 0 1.21-.63.73.73 0 0 0-.46-1.28c-.4 0-.8.34-1 .48q-.49.35-1.04.96-.27.3-.42.63-.12.37-.1.76h-.25v-1.04h-1.04v-.25q.4.02.75-.1.35-.15.63-.42.63-.56.97-1.04c.14-.2.47-.6.48-1a.73.73 0 0 0-1.29-.47 3 3 0 0 0-.62 1.23l-.25 1.16c-1.44-1.37-1.11-3.27-.26-4.4.14-.17.49-.54.62-.65q.38-.32.88-.32m-9.32 0q.52.02.88.33c.14.1.49.47.62.65.86 1.13 1.19 3.03-.25 4.4l-.26-1.17a3 3 0 0 0-.62-1.22.73.73 0 0 0-1.28.46c0 .4.33.8.47 1q.35.49.97 1.04c.19.17.4.34.63.42.23.1.5.1.75.1v.25h-1.04v1.04h-.24q.01-.4-.1-.75a2 2 0 0 0-.42-.63 7 7 0 0 0-1.05-.97c-.2-.14-.6-.47-1-.47a.73.73 0 0 0-.46 1.28c.28.28.76.48 1.23.62l1.16.25c-1.37 1.44-3.27 1.11-4.4.26a6 6 0 0 1-.65-.62 1.4 1.4 0 0 1-.33-.88q.01-.45.26-.8c.23-.31.6-.53 1.02-.55.02 0 .46.03.64-.02.66-.21.75-1.13-.01-1.25-.85-.12-.93-.55-.86-1.1.03-.24-.03-.47-.1-.65v-.06h.01V6.9h.07q.26.13.66.1c.54-.08.97 0 1.09.85.11.76 1.04.67 1.24.01.06-.17.03-.61.03-.64a1.34 1.34 0 0 1 1.34-1.27"/>
</svg>
