<svg xmlns="http://www.w3.org/2000/svg" width="512" height="512" viewBox="0 0 512 512" fill="none"><metadata><rdf:RDF xmlns:rdf="http://www.w3.org/1999/02/22-rdf-syntax-ns#" xmlns:dc="http://purl.org/dc/elements/1.1/"><rdf:Description><dc:creator>RealFaviconGenerator</dc:creator><dc:source>https://realfavicongenerator.net</dc:source></rdf:Description></rdf:RDF></metadata><path d="M256.08 0C256.56 0.32 259.919 3.04 263.918 7.68L264.877 8.64L266.477 11.04C267.223 11.7867 267.863 12.5867 268.396 13.44L270.316 16.64L271.755 18.88L274.314 24.16L275.594 27.68L276.714 31.36L277.193 33.28L277.993 37.44C278.72 43.5644 278.559 49.7618 277.513 55.84C277.513 56.6933 277.353 57.5467 277.033 58.4L279.433 56.8L280.232 56.32L281.832 55.52L283.431 54.72C286.636 53.5152 289.961 52.657 293.348 52.16L295.268 52H300.706L302.306 52.16L304.065 52.48L305.984 52.8C309.922 53.6382 313.667 55.2124 317.021 57.44L319.26 58.72L321.34 60.32L321.819 60.48L324.059 62.24L326.938 64.64L330.777 68.48V68.8C318.407 73.0667 307.317 80 297.507 89.6C289.294 97.805 282.777 107.548 278.328 118.272C273.88 128.997 271.586 140.492 271.579 152.103C271.571 163.714 273.85 175.213 278.285 185.943C282.72 196.673 289.225 206.425 297.427 214.64C305.629 222.855 315.369 229.374 326.09 233.825C336.811 238.275 348.304 240.569 359.911 240.577C371.518 240.584 383.014 238.304 393.74 233.868C404.467 229.431 414.215 222.925 422.428 214.72C432.132 204.8 439.063 193.653 443.222 181.28H443.541L445.141 182.88L447.54 185.28L448.82 186.88L450.419 188.48L453.138 192.48L454.738 195.2L456.337 198.08L457.457 200.64C458.861 204.456 459.775 208.434 460.176 212.48V216.64L458.897 224.32L457.297 228.48L456.817 229.6L456.337 230.72L455.858 231.68L454.898 233.28L454.418 233.92L453.778 234.88L456.177 234.56L461.136 233.76C464.168 233.471 467.221 233.471 470.253 233.76C472.386 233.76 474.518 233.973 476.651 234.4L480.65 235.36C483.209 236 485.662 236.8 488.008 237.76L494.406 240.96L496.645 242.24L497.285 242.72L499.844 244.48L502.243 246.24C508.161 251.04 511.68 255.52 512 256C511.68 256.64 508.961 260 504.322 264L503.203 264.8C502.243 265.867 501.123 266.773 499.844 267.52L498.564 268.32L498.404 268.64L495.845 270.24C493.31 271.819 490.632 273.159 487.848 274.24C484.266 275.812 480.506 276.941 476.651 277.6L474.572 278.08L470.253 278.56H465.774L460.976 278.4L458.577 278.08L456.177 277.6L453.618 277.12L454.098 277.6L454.738 278.72L456.018 280.8L456.657 282.4L458.257 286.08L458.737 287.68C460.079 291.805 460.569 296.16 460.176 300.48L459.536 304.8L458.257 309.28C457.724 310.88 457.031 312.48 456.177 314.08L455.378 315.68L454.578 316.96L453.298 319.2L451.699 321.44L451.539 321.76L449.779 324L447.38 326.88L443.541 330.88L443.222 330.72C438.292 316.617 429.866 303.996 418.733 294.037C407.601 284.077 394.124 277.106 379.564 273.775C365.005 270.443 349.839 270.861 335.485 274.988C321.131 279.116 308.058 286.818 297.489 297.375C286.921 307.932 279.202 320.998 275.056 335.35C270.909 349.703 270.47 364.874 273.78 379.442C277.089 394.011 284.039 407.502 293.98 418.652C303.92 429.803 316.525 438.249 330.617 443.2L330.777 443.52C324.715 449.842 317.42 454.852 309.343 458.24L304.705 459.52L302.465 459.84L300.386 460.16C296.742 460.518 293.063 460.247 289.51 459.36L287.75 458.72C287.217 458.72 286.63 458.56 285.991 458.24L282.472 456.64C282.045 456.64 281.672 456.48 281.352 456.16L278.153 454.24L277.193 453.76L278.473 463.36V470.24C278.473 471.84 278.313 473.28 277.993 474.56L277.193 478.72L276.554 481.6L274.314 488L272.715 491.2L271.755 493.12L270.156 495.68L269.836 496.32L268.236 498.56L266.637 500.96L264.717 503.36L262.638 505.76L261.358 507.04L259.759 508.64L256.08 512H255.92L250.802 507.2C249.096 505.493 247.229 503.36 245.203 500.8L244.724 500.16L242.324 496.64L241.045 494.4C239.125 491.281 237.569 487.953 236.406 484.48L235.446 481.28C234.378 477.688 233.734 473.982 233.527 470.24V465.28L234.487 456.32C234.487 455.467 234.647 454.613 234.967 453.76L234.647 453.92L234.327 454.24L233.847 454.56C233.314 455.093 232.247 455.68 230.648 456.32L229.688 456.8L227.129 457.92L221.211 459.68L217.532 460.32H213.693L209.535 460L207.295 459.68L202.817 458.4H202.497L197.858 456.32L192.42 453.12L190.021 451.52C187.409 449.577 184.949 447.437 182.663 445.12L181.063 443.52L181.383 443.36C195.46 438.402 208.051 429.955 217.98 418.808C227.908 407.662 234.85 394.18 238.157 379.622C241.464 365.064 241.027 349.905 236.889 335.562C232.75 321.218 225.044 308.158 214.491 297.602C203.938 287.045 190.882 279.337 176.543 275.197C162.204 271.057 147.05 270.621 132.496 273.929C117.943 277.236 104.465 284.18 93.3224 294.112C82.1796 304.044 73.7353 316.638 68.7785 330.72L68.4586 330.88L67.0191 329.44C61.3722 323.671 56.8677 316.885 53.7432 309.44V309.28L52.1437 302.56L51.8238 298.4V294.56C52.1211 291.255 52.9305 288.016 54.2231 284.96L55.1828 282.4L55.8226 281.12L58.3818 277.12L50.8641 278.24L46.7054 278.56H41.747C38.1267 278.226 34.5415 277.583 31.0303 276.64L27.6714 275.68L24.1525 274.08C19.078 271.814 14.2535 269.026 9.75695 265.76C3.8388 260.96 0.3199 256.48 0 256.16V256L0.15995 255.84C0.266583 255.52 0.6398 255.093 1.2796 254.56L1.75945 253.92L4.31865 251.2L4.95845 250.56L5.59825 249.92L5.91815 249.76L7.6776 248L9.2771 246.72L10.8766 245.44L11.8363 244.64L17.5945 240.96L23.9925 237.76C29.5409 235.271 35.5116 233.859 41.587 233.6L43.9863 233.44H46.7054C50.573 233.74 54.4189 234.274 58.2218 235.04L57.742 233.92L57.2621 233.12L56.3024 231.68L55.1828 229.6C53.0065 225.04 51.8373 220.065 51.7545 215.012C51.6717 209.96 52.6773 204.949 54.7029 200.32C56.0009 197.283 57.609 194.387 59.5014 191.68C61.7407 188.267 64.7264 184.747 68.4586 181.12L68.7785 181.28C73.0438 193.547 79.975 204.64 89.572 214.56C99.3563 224.36 111.304 231.725 124.453 236.064C137.602 240.402 151.586 241.591 165.279 239.537C178.972 237.482 191.991 232.241 203.289 224.234C214.587 216.228 223.849 205.68 230.328 193.44C236.294 182.192 239.759 169.786 240.484 157.074C241.209 144.361 239.178 131.642 234.529 119.788C229.88 107.934 222.723 97.2259 213.55 88.3975C204.377 79.5692 193.404 72.8293 181.383 68.64L181.223 68.48L182.663 66.88C185.593 63.9066 188.808 61.2271 192.26 58.88L195.139 57.28L198.018 55.68C200.993 54.299 204.102 53.2267 207.295 52.48L211.614 51.84C215.922 51.3958 220.275 51.8313 224.41 53.12C228.214 54.1611 231.793 55.8969 234.967 58.24L233.687 50.88L233.367 46.08V41.76L233.527 41.12L233.847 38.4L234.007 37.12L234.327 35.36L236.886 26.24C237.099 25.3867 237.419 24.64 237.846 24C238.699 21.6533 239.765 19.52 241.045 17.6L242.164 15.36L242.644 14.72L244.564 12.16L246.163 9.76C250.962 3.84 255.44 0.32 255.92 0H256.08ZM330.937 310.88C352.85 287.84 383.24 293.12 401.315 306.72C404.034 308.96 409.952 314.56 411.711 316.64C415.124 320.693 416.83 325.44 416.83 330.88C416.83 335.787 415.497 340 412.831 343.52C409.152 348.48 403.234 352 396.516 352.32C396.196 352.32 389.158 351.84 386.279 352.8C375.723 356 374.283 370.72 386.439 372.64C400.035 374.56 401.315 381.44 400.195 390.24C399.715 394.08 400.675 397.92 401.794 400.64V401.6L401.475 401.76H400.515C397.176 400.383 393.555 399.834 389.958 400.16C381.321 401.44 374.443 400.16 372.364 386.56C370.764 374.4 355.889 375.84 352.53 386.4C351.73 389.12 352.21 396.16 352.21 396.64C351.922 402.158 349.515 407.351 345.492 411.137C341.469 414.923 336.14 417.009 330.617 416.96C325.457 416.875 320.485 415.01 316.541 411.68C312.98 408.466 309.665 404.99 306.624 401.28C293.028 383.2 287.75 352.8 310.783 330.88L314.782 349.76C317.021 357.12 320.22 364.8 324.858 369.12C326.991 371.893 329.977 373.333 333.816 373.44C340.214 373.44 345.172 368.32 345.332 361.92C345.332 355.36 340.054 349.12 337.655 345.92C333.12 339.813 327.975 334.184 322.299 329.12C319.1 326.24 315.741 324 312.222 322.4C308.362 321.108 304.29 320.565 300.226 320.8V316.8H316.701V300.16H320.7C320.487 304.427 321.02 308.427 322.299 312.16C323.899 315.893 326.138 319.307 329.017 322.4C334.882 328.8 340.48 333.92 345.812 337.76C349.011 340 355.249 345.44 361.807 345.44C364.194 345.413 366.515 344.655 368.457 343.268C370.4 341.882 371.872 339.933 372.673 337.684C373.475 335.435 373.568 332.994 372.941 330.691C372.314 328.387 370.996 326.331 369.165 324.8C363.465 320.012 356.729 316.616 349.491 314.88L330.937 310.88ZM111.005 306.72C128.92 292.96 159.31 287.68 181.223 310.72L162.509 314.88C155.152 317.12 147.314 320.32 142.995 324.8C141.223 326.345 139.959 328.389 139.368 330.665C138.776 332.94 138.885 335.342 139.68 337.554C140.475 339.767 141.919 341.688 143.823 343.067C145.727 344.445 148.003 345.217 150.353 345.28C156.751 345.28 163.149 340 166.348 337.76C171.68 334.027 177.278 328.853 183.143 322.24C186.022 319.147 188.261 315.787 189.861 312.16C191.14 308.32 191.673 304.32 191.46 300.16H195.459V316.8H211.934V320.64C207.775 320.533 203.776 321.067 199.938 322.24C196.312 324.053 192.953 326.293 189.861 328.96C183.249 334.933 178.131 340.533 174.505 345.76C172.106 348.96 166.828 355.36 166.828 361.76C166.891 364.11 167.662 366.387 169.04 368.292C170.418 370.197 172.339 371.641 174.551 372.437C176.763 373.232 179.164 373.341 181.439 372.749C183.713 372.157 185.757 370.892 187.301 369.12C191.94 364.8 195.139 356.96 197.378 349.44L201.377 331.04C224.41 352.8 218.972 383.2 205.376 401.28C202.335 404.99 199.02 408.466 195.459 411.68C191.514 415.093 186.822 416.853 181.383 416.96C176.478 416.853 172.266 415.467 168.747 412.8C163.629 409.12 160.27 403.2 159.95 396.64C159.95 396.16 160.43 389.12 159.47 386.24C156.271 375.68 141.396 374.24 139.636 386.4C137.557 400 130.839 401.28 122.042 400.16C118.203 399.68 114.364 400.64 111.645 401.76H110.685L110.525 401.6V400.48C111.698 397.6 112.232 394.08 112.125 389.92C110.845 381.28 112.125 374.4 125.721 372.32C137.877 370.72 136.437 355.84 125.721 352.64C123.002 351.68 116.124 352.16 115.644 352.16C110.127 351.913 104.919 349.545 101.105 345.551C97.2907 341.557 95.1647 336.244 95.1703 330.72C95.1703 325.28 97.4096 320.48 100.449 316.64C102.208 314.4 108.126 308.8 111.005 306.72ZM330.617 95.36C335.415 95.4667 339.681 96.8 343.413 99.36C348.371 103.04 351.89 108.96 352.21 115.68C352.21 116 351.73 123.04 352.53 125.92C355.889 136.48 370.604 137.92 372.524 125.76C374.443 112.16 381.321 110.88 390.118 112C393.957 112.48 397.636 111.52 400.515 110.4H401.475V110.72H401.635V111.68C400.675 114.56 399.555 118.4 400.035 122.24C401.315 131.04 400.035 137.76 386.439 139.84C374.283 141.44 375.723 156.32 386.279 159.68C388.998 160.48 396.036 160 396.516 160C402.032 160.288 407.224 162.696 411.008 166.72C414.793 170.744 416.879 176.075 416.83 181.6C416.723 187.147 414.964 191.84 411.551 195.68C408.338 199.242 404.863 202.558 401.155 205.6C383.08 219.36 352.69 224.48 330.777 201.44L349.651 197.44C356.79 195.611 363.413 192.162 369.005 187.36C370.777 185.815 372.041 183.771 372.633 181.495C373.224 179.22 373.115 176.818 372.32 174.606C371.525 172.393 370.081 170.472 368.177 169.093C366.273 167.715 363.997 166.943 361.647 166.88C355.249 166.88 348.851 172.32 345.652 174.56C340.427 178.293 334.882 183.413 329.017 189.92C326.138 193.12 323.899 196.48 322.299 200C321.02 203.947 320.487 208 320.7 212.16H316.701V195.52H300.066V191.52C304.332 191.733 308.33 191.2 312.063 189.92C315.795 188.32 319.154 186.08 322.139 183.2C328.857 177.227 334.029 171.68 337.655 166.56C339.894 163.36 345.172 156.96 345.332 150.56C345.338 148.159 344.603 145.815 343.229 143.846C341.855 141.877 339.908 140.38 337.653 139.558C335.398 138.736 332.944 138.63 330.626 139.253C328.308 139.876 326.238 141.198 324.699 143.04C319.912 148.742 316.517 155.479 314.782 162.72L310.783 181.28C287.75 159.36 293.028 128.96 306.624 110.88C308.864 108.16 314.462 102.24 316.541 100.48C320.593 97.0667 325.285 95.36 330.617 95.36ZM181.543 95.36C187.088 95.5733 191.78 97.3333 195.619 100.64C197.858 102.24 203.456 108.16 205.536 111.04C219.291 129.12 224.57 159.52 201.537 181.44L197.378 162.72C195.62 155.536 192.226 148.855 187.461 143.2C185.917 141.428 183.873 140.163 181.598 139.571C179.324 138.979 176.923 139.088 174.711 139.883C172.499 140.679 170.578 142.123 169.2 144.028C167.822 145.933 167.051 148.21 166.988 150.56C166.988 156.96 172.266 163.36 174.505 166.56C178.238 171.787 183.409 177.333 190.021 183.2C193.06 185.92 196.419 188.64 200.097 189.92C203.776 191.52 208.095 191.52 212.094 191.52V195.52H195.459V212.16H191.62C191.727 207.893 191.194 203.893 190.021 200.16C188.443 196.403 186.163 192.981 183.303 190.08C178.249 184.347 172.621 179.146 166.508 174.56C163.309 172.32 156.911 167.04 150.513 167.04C148.163 167.103 145.887 167.875 143.983 169.253C142.079 170.632 140.635 172.553 139.84 174.766C139.045 176.978 138.936 179.38 139.527 181.655C140.119 183.931 141.383 185.975 143.155 187.52C147.634 192 155.311 195.2 162.829 197.44L181.383 201.44C159.47 224.48 129.08 219.2 111.005 205.6C107.297 202.558 103.821 199.242 100.609 195.68C97.2798 191.735 95.4152 186.762 95.3302 181.6C95.4369 176.8 96.8231 172.533 99.4889 168.8C103.168 163.84 109.086 160.32 115.804 160C116.124 160 123.162 160.48 126.041 159.68C136.597 156.32 138.037 141.6 125.881 139.68C112.285 137.76 111.005 130.88 112.125 122.08C112.605 118.24 111.645 114.56 110.525 111.68V110.72H110.685V110.4H111.805C114.578 111.787 118.096 112.32 122.362 112C130.999 110.72 137.877 112 139.796 125.6C141.556 137.76 156.431 136.32 159.63 125.76C160.59 123.04 160.11 116 160.11 115.52C160.397 110.03 162.781 104.86 166.77 101.079C170.759 97.297 176.048 95.1925 181.543 95.2" fill="white"></path></svg>