<svg xmlns="http://www.w3.org/2000/svg" style="display: none">
  <symbol id="burger" viewBox="0 0 32 32">
    <path
      d="M30 16q0 .46-.34.79-.35.31-.83.32H3.17q-.48-.01-.83-.32-.33-.34-.34-.79 0-.46.34-.79.35-.31.83-.32h25.66q.48.01.83.32.34.33.34.79M3.17 8.22h25.66q.48 0 .83-.32.34-.33.34-.79t-.34-.78a1.2 1.2 0 0 0-.83-.33H3.17q-.48 0-.83.33c-.22.2-.34.49-.34.78q0 .46.34.79.35.31.83.32m25.66 15.56H3.17q-.48 0-.83.32-.33.34-.34.79 0 .46.34.78t.83.33h25.66q.48 0 .83-.33c.22-.2.34-.49.34-.78q0-.46-.34-.79a1.2 1.2 0 0 0-.83-.32" />
  </symbol>

  <symbol id="cross" viewBox="0 0 32 32">
    <path
      d="M25.7 24.3a1 1 0 0 1-1.4 1.4L16 17.42l-8.3 8.3a1 1 0 0 1-1.4-1.42l8.28-8.3-8.3-8.3A1 1 0 1 1 7.7 6.3l8.3 8.28 8.3-8.3a1 1 0 1 1 1.4 1.42L17.42 16z" />
  </symbol>

  <symbol id="arrow-o" viewBox="0 0 16 16">
    <path
      d="M11.08 5.54v3.7a.62.62 0 1 1-1.23 0V7.01L5.97 10.9a.61.61 0 1 1-.87-.87l3.88-3.88H6.77a.62.62 0 0 1 0-1.23h3.7a.6.6 0 0 1 .6.62M16 8A8 8 0 1 1 0 8a8 8 0 0 1 16 0m-1.23 0A6.77 6.77 0 1 0 1.23 8a6.77 6.77 0 0 0 13.54 0" />
  </symbol>

  <symbol id="angle-down" viewBox="0 0 16 16">
    <path
      d="m13.53 6.53-5 5a.75.75 0 0 1-1.06 0l-5-5a.75.75 0 1 1 1.06-1.06L8 9.94l4.47-4.47a.75.75 0 0 1 1.06 1.06" />
  </symbol>

  <symbol id="angle-right" viewBox="0 0 24 24">
    <path
      d="m17.3 12.8-7.5 7.5a1.13 1.13 0 1 1-1.6-1.6l6.7-6.7-6.7-6.7a1.13 1.13 0 0 1 1.6-1.6l7.5 7.5a1.1 1.1 0 0 1 0 1.6" />
  </symbol>

  <symbol id="marker" viewBox="0 0 24 24">


    <path
      d="M18.38 10.26A6.5 6.5 0 0 0 12 3.63a6.5 6.5 0 0 0-6.37 6.63q0 .9.53 2.19.54 1.27 1.39 2.65a46 46 0 0 0 3.5 4.83l.1.1c.51.5 1.33.47 1.8-.1l.82-1.03c.86-1.1 1.84-2.44 2.68-3.8q.85-1.37 1.39-2.65.53-1.29.54-2.19m1.25 0c0 .83-.26 1.75-.63 2.66q-.59 1.42-1.49 2.83a48 48 0 0 1-3.6 4.97 2.46 2.46 0 0 1-3.82 0 48 48 0 0 1-3.6-4.97A20 20 0 0 1 5 12.92a7 7 0 0 1-.62-2.66A7.75 7.75 0 0 1 12 2.38a7.76 7.76 0 0 1 7.63 7.88" />
    <path
      d="M13.98 10a1.98 1.98 0 1 0-3.96 0 1.98 1.98 0 0 0 3.96 0m1.25 0a3.23 3.23 0 1 1-6.46 0 3.23 3.23 0 0 1 6.46 0" />

  </symbol>
  <symbol id="envelope" viewBox="0 0 24 24">

    <path
      d="M20.38 7c0-.76-.62-1.37-1.38-1.37H5c-.76 0-1.37.61-1.37 1.37v10c0 .76.61 1.38 1.37 1.38h14c.76 0 1.38-.62 1.38-1.38zm-2.68.83a.63.63 0 1 1 .85.92l-4.76 4.43c-1 .94-2.57.94-3.58 0L5.46 8.75a.63.63 0 0 1 .85-.92l4.75 4.44c.53.5 1.35.5 1.88 0zM21.63 17A2.6 2.6 0 0 1 19 19.63H5A2.6 2.6 0 0 1 2.38 17V7A2.6 2.6 0 0 1 5 4.38h14A2.6 2.6 0 0 1 21.63 7z" />

  </symbol>

  <symbol id="mobile" viewBox="0 0 24 24">

    <path
      d="M16.38 5c0-.76-.62-1.37-1.38-1.37H9c-.76 0-1.37.61-1.37 1.37v14c0 .76.61 1.38 1.37 1.38h6c.76 0 1.38-.62 1.38-1.38zM14 4.38a.62.62 0 1 1 0 1.25h-4a.62.62 0 1 1 0-1.25zM17.63 19A2.6 2.6 0 0 1 15 21.63H9A2.6 2.6 0 0 1 6.38 19V5A2.6 2.6 0 0 1 9 2.38h6A2.6 2.6 0 0 1 17.63 5z" />

  </symbol>

</svg>