<svg xmlns="http://www.w3.org/2000/svg" style="display: none">
  <symbol id="burger" viewBox="0 0 32 32">
    <path
      d="M30 16q0 .46-.34.79-.35.31-.83.32H3.17q-.48-.01-.83-.32-.33-.34-.34-.79 0-.46.34-.79.35-.31.83-.32h25.66q.48.01.83.32.34.33.34.79M3.17 8.22h25.66q.48 0 .83-.32.34-.33.34-.79t-.34-.78a1.2 1.2 0 0 0-.83-.33H3.17q-.48 0-.83.33c-.22.2-.34.49-.34.78q0 .46.34.79.35.31.83.32m25.66 15.56H3.17q-.48 0-.83.32-.33.34-.34.79 0 .46.34.78t.83.33h25.66q.48 0 .83-.33c.22-.2.34-.49.34-.78q0-.46-.34-.79a1.2 1.2 0 0 0-.83-.32" />
  </symbol>

  <symbol id="cross" viewBox="0 0 32 32">
    <path
      d="M25.7 24.3a1 1 0 0 1-1.4 1.4L16 17.42l-8.3 8.3a1 1 0 0 1-1.4-1.42l8.28-8.3-8.3-8.3A1 1 0 1 1 7.7 6.3l8.3 8.28 8.3-8.3a1 1 0 1 1 1.4 1.42L17.42 16z" />
  </symbol>

  <symbol id="arrow-o" viewBox="0 0 16 16">
    <path
      d="M11.08 5.54v3.7a.62.62 0 1 1-1.23 0V7.01L5.97 10.9a.61.61 0 1 1-.87-.87l3.88-3.88H6.77a.62.62 0 0 1 0-1.23h3.7a.6.6 0 0 1 .6.62M16 8A8 8 0 1 1 0 8a8 8 0 0 1 16 0m-1.23 0A6.77 6.77 0 1 0 1.23 8a6.77 6.77 0 0 0 13.54 0" />
  </symbol>

  <symbol id="angle-down" viewBox="0 0 16 16">
    <path
      d="m13.53 6.53-5 5a.75.75 0 0 1-1.06 0l-5-5a.75.75 0 1 1 1.06-1.06L8 9.94l4.47-4.47a.75.75 0 0 1 1.06 1.06" />
  </symbol>

  <symbol id="angle-right" viewBox="0 0 24 24">
    <path
      d="m17.3 12.8-7.5 7.5a1.13 1.13 0 1 1-1.6-1.6l6.7-6.7-6.7-6.7a1.13 1.13 0 0 1 1.6-1.6l7.5 7.5a1.1 1.1 0 0 1 0 1.6" />
  </symbol>

</svg>